<svg width="636" height="633" viewBox="0 0 636 633" fill="none" xmlns="http://www.w3.org/2000/svg">
<rect width="629.203" height="629.203" rx="20" fill="black"/>
<mask id="mask0_327_5" style="mask-type:alpha" maskUnits="userSpaceOnUse" x="82" y="79" width="554" height="554">
<rect x="83.0636" y="79.8879" width="551.846" height="551.846" rx="19.5" fill="black" stroke="black"/>
</mask>
<g mask="url(#mask0_327_5)">
<path d="M404.771 403.071C424.826 403.071 426.968 406.298 426.968 435.751C426.968 465.204 424.826 468.432 404.771 468.432C384.715 468.432 382.573 465.204 382.573 435.751C382.573 406.298 384.715 403.071 404.771 403.071ZM343.629 435.751C343.629 486.184 355.896 498.691 404.771 498.691C453.645 498.691 465.912 486.184 465.912 435.751C465.912 385.318 453.645 372.811 404.771 372.811C355.896 372.811 343.629 385.318 343.629 435.751Z" fill="white"/>
<path d="M537.855 363.128H555.575V334.885H536.103C498.912 334.885 489.371 342.955 489.371 375.232H477.688V407.509H489.371V496.271H526.367V407.509H563.363V496.271H600.36V407.509H631.515V375.232H600.36V374.021C600.36 364.136 601.528 363.128 611.848 363.128H635.409V334.885H610.096C572.905 334.885 563.363 342.955 563.363 375.232H526.367V374.021C526.367 364.136 527.535 363.128 537.855 363.128Z" fill="white"/>
<path d="M133.753 473.096V639.401H171.891V622.355C175.395 642.104 187.97 641.896 212.09 641.896C250.64 641.896 260.329 629.007 260.329 577.037C260.329 525.067 251.053 512.178 214.152 512.178C190.65 512.178 177.457 517.999 172.921 531.511V473.096H133.753ZM172.921 595.33V569.137C172.921 552.507 180.343 545.439 197.866 545.439C217.038 545.439 219.099 548.557 219.099 577.037C219.099 605.517 216.832 608.635 195.598 608.635C181.374 608.635 172.921 604.685 172.921 595.33Z" fill="white"/>
<path d="M397.489 599.696H356.259C356.259 610.09 352.136 612.792 335.85 612.792C318.946 612.792 315.029 610.09 314.204 588.262H398.52V568.93C397.489 523.611 384.502 512.178 335.644 512.178C285.343 512.178 272.768 525.067 272.768 577.037C272.768 629.007 285.343 641.896 335.644 641.896C384.296 641.896 396.665 633.373 397.489 599.696ZM314.41 559.159C315.853 543.36 320.595 541.281 335.85 541.281C353.991 541.281 356.878 543.152 357.29 559.159H314.41Z" fill="white"/>
<path d="M474.986 512.178C426.953 512.178 414.996 520.285 414.996 553.131V557.496H454.165C453.752 542.944 455.814 541.281 474.574 541.281C491.272 541.281 493.127 542.944 493.127 558.12V565.188L458.082 565.396C420.356 565.396 410.873 573.087 410.873 603.438C410.873 635.451 420.356 643.143 458.7 641.896C478.284 641.688 489.004 635.659 493.127 622.355V639.401H532.296V555.417C532.296 520.909 520.752 512.178 474.986 512.178ZM452.103 603.854C452.103 595.33 454.371 594.499 474.574 594.499L493.127 594.291V599.696C493.127 609.258 487.561 613.416 474.574 613.624C454.371 614.04 452.103 613 452.103 603.854Z" fill="white"/>
<path d="M635.409 604.061H614.587C601.806 604.061 600.363 602.398 600.363 587.223V547.934H633.347V514.673H600.363V488.064H563.256V514.673H548.825V547.934H561.194V597.409C561.194 631.086 571.09 639.401 610.671 639.401H635.409V604.061Z" fill="white"/>
</g>
</svg>
